<svg version="1" xmlns="http://www.w3.org/2000/svg" width="429.333" height="429.333" viewBox="0 0 322.000000 322.000000"><path d="M153.8 6.7c-3.5 3.8-7.7 8.7-9.3 11.1l-2.8 4.3-4.5-8.5c-3.1-6-5-8.6-6.2-8.6-3.9 0-18.1 13.9-24.4 23.8-3.9 6.3-11.9 22.6-14.6 30-2.5 7-2.8 7.1-10.7 2.6-7.5-4.3-12.4-19.3-10.5-31.9 1.1-6.6.4-8-3.4-7.1-4 1-15.6 13.1-19 19.7-9.1 18-6.5 32.9 8.7 50.6 6.1 7.1 6.6 8.6 5.3 16.5-.6 3.4-1 3.8-4.3 4.4-22 3.6-31.4 17.8-31.4 47.5 0 11.5.3 13.5 3.3 22.8 4.8 15.2 15.7 30.6 27.9 39.6 3.9 2.8 6.1 5.8 11.1 14.7 3.5 6.2 9.1 15.4 12.6 20.5l6.4 9.1-1 7.8c-2.5 19.8 2.5 27.4 23.6 35.6 13.7 5.3 30.4 5 44.9-.8l6-2.4 8.5 3.2c7.9 2.9 9.5 3.2 21 3.2 10.7.1 13.5-.2 19.5-2.3 20-6.9 26.5-14 26.5-29.1 0-4.1-.4-9-1-10.9-.9-3.1-.5-4 7.4-16 4.5-6.9 10.4-16.5 13-21.4 2.6-4.8 5-8.7 5.5-8.7 1.7 0 16.5-14.7 20.6-20.5 14.8-20.7 18.4-45.2 10.4-70.2-3.6-11.1-12.9-18.8-25.5-21.3l-6.1-1.2-.6-6.5-.6-6.6 4.6-5.1c6.6-7.3 12.1-16.2 14-22.5 3.6-12.4-.2-27-9.9-39-4.6-5.6-12-11.1-15-11.1-1.7 0-1.8.6-1.2 7.3.8 8.9-.9 19.8-3.9 25.2-2.2 3.9-8.3 8.8-12.4 10-1.8.5-2.5.1-3.2-1.7-10.1-24.4-16.3-35.4-25.3-45.3-3.9-4.1-9-8.9-11.3-10.5l-4.4-3-2.5 3.2c-1.3 1.8-3.6 6-5 9.2l-2.6 5.9-3.5-4.9c-4.2-5.9-15.4-17.4-17-17.4-.7 0-4.1 3-7.7 6.7zm-32.6 85.6c3.5 2.4 9.7 6.2 13.8 8.4l7.5 4 .2 6.7.1 6.6-19.6-.2-19.5-.3-2.5-7c-4.1-11.8-3.2-23.7 2.4-32.3 1.5-2.2 1.5-2.2 6.4 3.7 2.7 3.3 7.8 8 11.2 10.4zm103.2 4.2c-.1 5.8-.8 9.8-2.5 14.5l-2.4 6.5-19.5.3-19.5.2.1-6.6.1-6.6 7.9-4.2c13-6.9 20.8-13 27.2-21.4l2.7-3.5 3 6.4c2.6 5.6 3 7.4 2.9 14.4zM86.7 157.1c3.7 3.9 10 9.1 13.8 11.7 3.9 2.5 7.3 4.8 7.7 5.1.4.3 1.4 4.2 2.3 8.5 2.1 10.2 5.3 16.4 11.9 23.2 5.1 5.3 9.1 6.9 10.1 4.1.3-.6.8-7.9 1.3-16.1l.7-15 7.7-1.6c4.3-.9 10.5-3.1 13.9-4.8 6.1-3.1 6.2-3.2 8.8-1.3 3.3 2.3 10 4.7 17.6 6.4l6 1.4.7 4.9c.3 2.7.7 9.3.7 14.6.1 5.3.4 10.3.7 11.2 1.2 3.1 5.3 1.8 10-3.2 6.7-6.9 9.6-12.5 11.9-22.9l2.1-9.3 9.1-6c5.3-3.5 11.3-8.5 14.4-12 2.9-3.3 5.6-6 6.1-6s2.1 2 3.7 4.5c3.1 4.9 5.8 14.5 7.1 24.8l.7 6.2-7.2 11c-8.2 12.4-21.1 35.3-30 53.2-3.3 6.7-6.2 12.2-6.5 12.2-.3 0-2.1-3.2-4-7.1-4.5-9.1-11.3-18.4-14.1-19.3-4.2-1.4-5.1 1.2-5.7 16.4l-.5 14-4.6-.7c-5.3-.8-35.1-1-42.6-.2l-5 .5-.3-12.4c-.4-13.1-1.2-16.8-3.7-17.8-3-1.1-9.1 6.2-16.4 19.7l-3.8 7.2-10-19.4C90.1 221.2 80.8 205 73 193.5l-5.3-7.6.7-6.2c1.4-13.2 7.2-29.7 10.5-29.7.5 0 4 3.2 7.8 7.1z"/></svg>